<svg width="55" height="55" viewBox="0 0 55 55" fill="none" xmlns="http://www.w3.org/2000/svg">
<path d="M38.1518 37.059C38.6066 37.254 39.1047 37.1458 39.4729 36.8209C39.7977 36.5394 41.3353 35.1316 41.92 34.7851C42.6563 34.352 43.2194 26.9672 43.2194 26.9889C43.2627 26.5557 43.1111 26.1225 42.8079 25.8193C39.841 22.8091 39.6894 22.4192 36.1594 21.9861C35.1848 21.8562 34.5352 21.8996 34.4053 22.1162C33.8638 22.9824 36.311 24.5632 38.2384 24.5632C38.9747 24.5632 41.2486 26.9671 41.0321 27.5085C40.8805 27.8767 40.9454 30.2372 40.9238 32.836L39.9492 33.3341C39.4078 33.6157 38.7365 34.1138 38.455 34.4819C37.9569 35.11 37.9136 35.1101 37.069 34.6119C36.2677 34.1355 34.8816 34.1572 34.8816 34.6553C34.8816 35.0884 36.5925 36.4527 37.7187 36.9074L38.1518 37.059Z" fill="#000001"/>
<path d="M48.2222 18.6506C48.2438 17.9793 47.9406 17.3296 47.4208 16.9181C46.4463 16.1601 45.3851 16.0735 44.8654 16.6799C43.2195 18.6723 36.5926 17.9576 29.9441 15.0556C25.3746 13.0632 20.0904 12.1753 15.5425 12.6301C5.66713 13.6046 6.68498 13.8429 7.63787 38.0332L8.69902 38.5746C9.73853 39.116 9.82511 39.116 12.7704 38.4663C17.4699 37.4268 25.1363 37.5134 29.5976 38.6179C33.604 39.6141 34.427 39.4409 32.7811 37.8816C29.7492 35.0229 17.6648 33.377 12.7704 35.1745C11.7742 35.5427 10.8431 35.8242 10.6915 35.8242C10.1717 35.8242 11.1462 29.3056 10.6481 15.8136C10.6698 15.8136 20.8916 12.9333 28.493 16.8098C32.6078 18.9105 37.6321 20.2748 41.4004 20.2965H45.0603C45.0603 37.9032 45.2119 39.7442 44.5839 39.7442C44.3024 39.7442 42.5915 39.5491 40.7723 39.3109C37.2423 38.8561 36.7442 38.9429 37.4588 39.9606C38.1518 40.9352 42.5049 41.9963 45.2336 42.1263C47.7458 42.2562 47.4425 41.888 47.5508 40.3504C47.6591 38.4663 47.5508 39.9606 48.2222 18.6506Z" fill="#000001"/>
<path d="M15.1742 20.3616C15.8455 20.1883 16.9934 19.2138 17.1883 18.6507C17.2749 18.3692 18.0762 18.3908 20.5451 18.6724C26.6522 19.387 23.8368 16.8532 22.6674 16.5284C21.303 16.1386 19.1807 16.2902 16.7552 16.6583C16.3004 16.7233 15.759 17.0698 15.5641 17.438C15.3692 17.8061 14.3729 18.4125 13.6799 19.1272C11.7958 21.0113 11.6009 30.4319 13.42 30.7134C14.9143 30.93 15.4124 31.1249 16.1704 31.8395C17.1016 32.6842 17.2099 32.5975 23.382 32.5975C24.2266 32.5975 24.6814 30.5185 19.3755 30.3019C17.1882 30.2153 16.7118 30.0854 15.9322 29.4357C15.4341 29.0242 14.8927 28.6777 14.7411 28.6777C14.0697 28.6777 14.5028 20.5132 15.1742 20.3616Z" fill="#000001"/>
<path d="M28.7215 32.4204C28.9598 32.1172 29.133 30.9477 29.133 30.8394C29.133 30.7312 29.7827 30.7745 30.4974 30.5796C33.1395 29.8649 33.0745 26.6597 30.3891 25.1438C29.6528 24.7323 26.9674 24.5807 27.3355 22.9348C27.5954 21.722 28.505 22.1335 29.4795 22.61C30.1509 22.9132 30.7356 23.2597 31.3203 23.5628C32.3598 24.1043 32.3382 22.7182 31.6452 22.1335C31.212 21.7654 30.584 21.3972 29.956 21.1157C29.8261 21.0507 30.0858 20.4227 29.8693 19.9679C29.4145 19.0366 28.1152 18.6252 28.1152 19.4265C28.1152 19.5347 27.9202 20.401 27.9202 20.401C27.8985 20.401 25.603 19.3398 24.7368 21.8953C24.3036 23.173 24.845 25.0355 26.4693 25.5336C27.7687 25.9451 30.1292 26.3565 29.956 27.6992C29.7178 29.5617 26.5559 28.284 26.5342 28.284C24.2819 27.7209 22.7444 28.4572 25.4081 29.6483C25.8629 29.8649 26.8807 30.1248 27.0973 30.3197C27.3139 30.5146 27.0756 31.749 27.0756 31.9656C27.1189 32.9185 28.2018 33.135 28.7215 32.4204Z" fill="#000001"/>
</svg>
