<svg width="55" height="55" viewBox="0 0 55 55" fill="none" xmlns="http://www.w3.org/2000/svg">
<path fill-rule="evenodd" clip-rule="evenodd" d="M36.8593 11.3719C35.056 12.1844 34.0849 13.7697 33.9462 16.1081C33.7679 19.2391 33.0544 20.3092 32.242 18.6842C29.2893 12.8582 19.1433 11.2134 18.1128 16.4053C17.9939 16.9602 17.9741 16.9602 16.686 16.9602C11.0185 16.9205 7.74881 28.0772 11.8112 33.606C12.0886 33.9826 11.6923 35.3103 10.5231 37.9062C9.86918 39.3528 9.94843 39.5906 11.0978 40.1059C12.1481 40.5815 12.485 40.0861 14.5855 34.9338C14.9026 34.1609 14.9026 33.289 14.5855 32.5161C14.1099 31.3668 13.5352 30.0985 13.0795 29.2464C11.5734 26.2938 12.5642 22.1323 15.3782 19.6354C17.9543 17.3565 20.5899 19.2391 18.3308 21.7558C15.2196 25.2038 18.1723 29.3851 22.7499 28.0178C26.8519 26.809 27.0104 21.082 22.9679 19.9921C20.8277 19.4174 19.9161 16.4053 21.541 15.3154C25.5836 12.5807 30.617 18.1888 30.082 24.8471C29.8046 28.315 33.2923 26.7297 33.2923 24.3517C33.2923 23.7374 33.4508 23.4005 34.085 22.6673C35.4325 21.1018 36.0666 19.4571 36.3639 16.6233C36.6413 14.0075 40.0497 11.8277 41.0207 13.6508C41.6351 14.8002 40.664 20.9433 39.5741 22.707C38.7021 24.1338 35.6108 27.6413 34.6199 28.315C33.3319 29.187 33.4707 29.94 34.9965 30.1976C35.7496 30.3165 35.8685 30.2769 37.2754 29.1077C40.783 26.1947 41.8927 24.7679 42.725 22.0332C43.3195 20.0912 44.1914 20.5271 44.2112 22.5484C44.231 26.6901 39.8912 31.5253 35.7297 33.2295C34.7389 33.6457 34.6794 34.1015 35.5315 34.7356C36.7998 35.667 39.0588 34.696 41.6548 32.1C43.2798 30.475 43.3591 30.4354 43.1807 31.0893C42.2097 34.8545 39.0787 37.9657 35.0956 39.1349C32.46 39.9077 30.0028 40.4626 28.1598 40.7004C27.9022 40.7796 26.3367 40.7202 25.0288 42.1073C23.1066 44.1484 26.0593 45.7734 27.0699 44.1484C27.823 42.9198 28.0607 42.8009 29.5272 42.7811C30.9738 42.7811 31.053 42.7613 35.155 41.6119C38.6427 40.6409 40.7037 39.6303 42.1899 38.1837C45.3209 35.1121 46.6288 30.6732 45.0039 28.533C44.6472 28.0574 44.6471 28.0376 45.2218 26.7892C46.391 24.2923 46.1136 21.0027 44.5679 19.14C44.013 18.4662 43.9734 18.2879 43.914 16.6629C43.8347 12.8185 40.0101 9.94516 36.8593 11.3719ZM22.6508 21.2009C24.2956 22.0332 23.3246 26.3334 21.4024 26.809C20.7286 26.9873 17.7363 25.4416 20.0746 22.2116C21.1447 20.7253 21.4618 20.5866 22.6508 21.2009Z" fill="#000001"/>
</svg>
