<svg width="55" height="55" viewBox="0 0 55 55" fill="none" xmlns="http://www.w3.org/2000/svg">
<path fill-rule="evenodd" clip-rule="evenodd" d="M16.4788 10.1657C13.9968 10.5787 15.6675 12.2554 17.7199 12.547C19.4382 12.79 22.7317 12.79 29.8198 12.7657C38.4591 12.7414 42.1582 12.8386 42.7072 13.0816C44.0675 13.7134 44.6643 16.1434 45.0461 22.7286C45.1893 25.0613 45.4756 28.5605 45.6904 30.5044C46.3587 36.7494 45.7382 37.3569 37.8864 37.6728C34.8554 37.7943 30.9176 38.0373 29.1515 38.2074C20.8941 39.0093 15.7629 38.8634 12.899 37.6971C10.5124 36.7251 10.6318 35.9475 10.5602 34.3194C10.3931 31.1605 10.4647 24.7211 10.7749 18.8649C11.0375 13.9564 11.3477 12.9844 12.899 12.2554C13.8536 11.818 13.5195 11.3077 12.3262 11.3563C10.5363 11.4535 9.15212 12.061 8.8896 14.9041C8.55548 18.4032 6.43137 37.6242 10.2499 39.2523C12.7557 40.3215 17.1232 41.3663 18.8415 41.3663C20.0348 41.3663 19.9872 42.7271 18.7938 43.0916C16.0493 43.8935 17.9824 45.8375 21.6099 45.9833C28.9606 46.2262 39.7002 45.6188 39.7957 44.9141C39.8912 44.2094 38.3399 42.6056 37.5284 42.6056C37.2659 42.6056 37.0987 42.2897 37.0987 41.828C37.0987 41.1719 37.0988 40.2485 37.8386 40.2485C41.0128 40.2485 42.7072 40.1027 43.6618 39.884C48.3156 38.8634 48.5066 35.6559 48.4589 33.7849C48.2918 26.1305 46.8837 18.8163 46.8837 17.0911C46.8599 14.1022 45.1416 11.1619 41.4662 10.6273C40.0344 10.19 18.937 9.75255 16.4788 10.1657ZM28.9367 25.037C28.6503 24.7211 25.882 21.5865 25.1183 20.7846C24.1636 19.7883 23.1851 20.1042 21.1326 22.0238C20.0825 23.0201 18.4359 24.5024 17.4573 25.3529C14.0685 28.2689 13.8058 29.581 16.5982 29.581C17.5528 29.581 18.0063 29.2408 20.8463 26.2763C24.5216 22.4369 24.1875 22.4612 27.3855 25.6202C29.5334 27.7342 29.2709 27.7586 32.7553 24.9884C35.7623 22.1454 37.4807 20.25 39.6524 18.0387C41.8003 15.8518 38.5068 14.8555 36.7647 16.362C34.7122 18.0873 28.9606 25.0127 28.9367 25.037ZM36.6692 23.8949C36.2397 25.0127 36.4544 32.4727 36.9318 32.9344C38.1012 34.1251 38.8172 31.5736 38.7456 26.5193C38.6979 23.7248 37.3614 22.0482 36.6692 23.8949ZM22.851 26.9324C22.1112 28.925 22.7317 34.3681 24.2352 34.1008C25.7387 33.8335 24.7125 27.8314 24.3784 26.9567C24.1636 26.3249 23.0896 26.3006 22.851 26.9324ZM32.5643 27.4912C32.1586 28.0015 31.7529 31.768 32.0155 32.7886C32.4689 34.611 34.3542 33.8092 34.3542 31.7923C34.3542 28.4147 33.4951 26.3492 32.5643 27.4912ZM18.9848 30.0913C18.6268 30.4558 18.7699 33.1774 19.1995 33.7605C19.9632 34.8297 20.6314 34.1494 20.6314 32.2783C20.6076 30.3343 19.7961 29.2409 18.9848 30.0913ZM27.2184 30.0913C26.5979 30.7231 27.0274 33.3231 27.7912 33.6876C29.0083 34.2465 29.4141 32.7157 28.6742 30.2857C28.5549 29.8483 27.5764 29.7268 27.2184 30.0913ZM33.3758 40.6617C34.3305 40.929 33.9725 41.8037 34.0679 42.6056L23.0419 42.8C23.0419 42.7271 23.2329 40.8074 23.2329 40.9289C23.9966 40.9046 30.9892 40.6131 31.9439 40.5402C32.3257 40.4916 32.994 40.5645 33.3758 40.6617Z" fill="#006B99"/>
</svg>
