<svg width="106" height="23" viewBox="0 0 106 23" fill="none" xmlns="http://www.w3.org/2000/svg">
<g clip-path="url(#clip0_2_1662)">
<path d="M21.7231 3.91331C20.9233 4.34219 20.0751 4.62361 19.2063 4.74804C20.1213 4.08537 20.806 3.04254 21.1329 1.81396C20.2728 2.43199 19.3317 2.86719 18.3504 3.1007C17.9403 2.5713 17.4449 2.14948 16.8946 1.86137C16.3444 1.57325 15.7512 1.42499 15.1517 1.42578C12.7317 1.42578 10.7695 3.80049 10.7695 6.73056C10.7695 7.14593 10.8084 7.55125 10.8833 7.93978C7.24112 7.7185 4.01224 5.60639 1.85081 2.39655C1.46109 3.20616 1.25631 4.12669 1.25747 5.06368C1.2569 5.9371 1.43455 6.79717 1.77465 7.5674C2.11475 8.33775 2.60677 8.99433 3.20698 9.47902C2.51119 9.45228 1.83075 9.22475 1.22224 8.81555C1.22169 8.83767 1.22169 8.85944 1.22169 8.88236C1.22169 11.4517 2.73208 13.5958 4.73649 14.0837C4.09109 14.2952 3.41438 14.3262 2.7576 14.1744C3.31516 16.2814 4.93346 17.8157 6.85105 17.8587C5.29876 19.3333 3.38187 20.1332 1.40865 20.1296C1.05497 20.1296 0.706294 20.1048 0.363159 20.0554C2.36685 21.6138 4.69886 22.4411 7.08047 22.4382C15.1409 22.4382 19.5487 14.3553 19.5487 7.34607C19.5487 7.11646 19.5442 6.88702 19.5359 6.65905C20.3942 5.90887 21.135 4.97901 21.7231 3.91331Z" fill="black"/>
</g>
<g clip-path="url(#clip1_2_1662)">
<path d="M62.3715 1H43.6242C42.7262 1 42 1.70899 42 2.58555V21.4101C42 22.2867 42.7262 23 43.6242 23H62.3715C63.2695 23 64 22.2867 64 21.4144V2.58555C64 1.70899 63.2695 1 62.3715 1ZM48.5269 19.7473H45.2613V9.24569H48.5269V19.7473ZM46.8941 7.81487C45.8457 7.81487 44.9992 6.96837 44.9992 5.9242C44.9992 4.88008 45.8457 4.03359 46.8941 4.03359C47.9383 4.03359 48.7848 4.88008 48.7848 5.9242C48.7848 6.96406 47.9383 7.81487 46.8941 7.81487ZM60.7473 19.7473H57.4859V14.6426C57.4859 13.4266 57.4644 11.8582 55.7887 11.8582C54.0914 11.8582 53.8336 13.1859 53.8336 14.5566V19.7473H50.5766V9.24569H53.7047V10.6809H53.7476C54.1816 9.85587 55.2473 8.98362 56.8328 8.98362C60.1371 8.98362 60.7473 11.1578 60.7473 13.9852V19.7473Z" fill="black"/>
</g>
<g clip-path="url(#clip2_2_1662)">
<path d="M106 12C106 5.92488 101.075 1 95 1C88.9249 1 84 5.92488 84 12C84 17.4903 88.0225 22.0412 93.2812 22.8664V15.1797H90.4883V12H93.2812V9.57656C93.2812 6.81969 94.9235 5.29688 97.4361 5.29688C98.6393 5.29688 99.8984 5.51172 99.8984 5.51172V8.21875H98.5114C97.145 8.21875 96.7188 9.06676 96.7188 9.9375V12H99.7695L99.2818 15.1797H96.7188V22.8664C101.977 22.0412 106 17.4903 106 12Z" fill="black"/>
</g>
<defs>
<clipPath id="clip0_2_1662">
<rect width="22" height="22" fill="white" transform="translate(0 1)"/>
</clipPath>
<clipPath id="clip1_2_1662">
<rect width="22" height="22" fill="white" transform="translate(42 1)"/>
</clipPath>
<clipPath id="clip2_2_1662">
<rect width="22" height="22" fill="white" transform="translate(84 1)"/>
</clipPath>
</defs>
</svg>
