<svg width="458" height="258" viewBox="0 0 458 258" fill="none" xmlns="http://www.w3.org/2000/svg">
<path d="M360.353 50.2838H126.669V41.0534C126.669 38.3509 127.743 35.7591 129.655 33.8483C131.566 31.9373 134.158 30.8634 136.861 30.8628H357.239C356.863 32.6935 356.676 34.5574 356.674 36.4263C356.674 36.5054 356.674 36.5748 356.674 36.6514H163.211V44.416H357.661L357.848 44.3633C358.464 46.4228 359.303 48.4084 360.353 50.2838Z" fill="#CCEFF6"/>
<path d="M253.803 201.621C255.296 201.621 256.756 202.063 257.998 202.893C259.24 203.722 260.209 204.901 260.78 206.28C261.351 207.66 261.503 209.177 261.212 210.643C260.92 212.107 260.2 213.452 259.144 214.508C258.088 215.563 256.743 216.284 255.279 216.575C253.813 216.866 252.295 216.715 250.915 216.144C249.535 215.573 248.355 214.605 247.527 213.362C246.697 212.12 246.255 210.66 246.255 209.168C246.256 207.167 247.052 205.248 248.468 203.834C249.882 202.418 251.8 201.623 253.803 201.621Z" fill="#F7CEDC"/>
<path d="M389.999 88.1532V175.092C388.207 175.862 386.465 176.741 384.783 177.726L380.846 176.395L380.948 176.09V71.6321L389.999 88.1532Z" fill="#F7CEDC"/>
<path d="M389.999 70.2837V88.1531L380.946 71.6274V67.532C383.874 68.723 386.904 69.6442 389.999 70.2837Z" fill="#006B99"/>
<path d="M372.499 222.932H355.99L363.701 195.405H368.772C367.442 198.706 366.758 202.23 366.754 205.788C366.802 211.967 368.814 217.972 372.499 222.932Z" fill="#006B99"/>
<path d="M363.707 195.405L355.995 222.932H131.366C127.719 222.932 124.222 221.484 121.643 218.905C119.065 216.328 117.616 212.831 117.616 209.185V143.529L126.669 131.97V185.216C126.669 187.917 127.743 190.51 129.655 192.42C131.566 194.332 134.158 195.405 136.861 195.405H363.707ZM261.367 209.168C261.369 207.675 260.926 206.215 260.096 204.972C259.266 203.73 258.088 202.763 256.708 202.19C255.328 201.619 253.811 201.467 252.345 201.759C250.879 202.05 249.533 202.768 248.477 203.824C247.42 204.878 246.701 206.223 246.408 207.689C246.117 209.152 246.264 210.672 246.835 212.051C247.406 213.431 248.374 214.611 249.616 215.441C250.856 216.272 252.316 216.715 253.811 216.717C255.813 216.717 257.733 215.92 259.148 214.506C260.564 213.09 261.359 211.17 261.361 209.168H261.367Z" fill="#F7CEDC"/>
<path d="M360.453 75.8404C360.985 75.8274 361.514 75.9209 362.009 76.1154C362.505 76.3099 362.955 76.6015 363.337 76.9728C363.718 77.3443 364.019 77.7882 364.226 78.2783C364.433 78.7687 364.54 79.2956 364.54 79.8263C364.54 80.3589 364.433 80.8858 364.226 81.3763C364.019 81.8649 363.718 82.3094 363.337 82.6811C362.955 83.0528 362.505 83.3441 362.009 83.5376C361.514 83.733 360.985 83.8269 360.453 83.8135H268.536C267.748 83.8154 266.976 83.5816 266.319 83.1448C265.663 82.706 265.15 82.0833 264.849 81.3553C264.546 80.6253 264.467 79.8244 264.623 79.0503C264.778 78.2764 265.157 77.5662 265.717 77.0092C266.085 76.6369 266.525 76.3418 267.008 76.1412C267.493 75.9404 268.013 75.8383 268.536 75.8404H360.453Z" fill="#CCEFF6"/>
<path d="M360.455 92.8876C361.512 92.8876 362.526 93.3091 363.274 94.0563C364.023 94.8036 364.443 95.8191 364.443 96.8767C364.443 97.9343 364.023 98.9479 363.274 99.6951C362.526 100.444 361.512 100.864 360.455 100.864H222.032C220.974 100.862 219.96 100.44 219.211 99.6913C218.464 98.9441 218.042 97.9286 218.042 96.8709C218.046 95.8152 218.468 94.8036 219.215 94.0563C219.964 93.311 220.976 92.8914 222.032 92.8876H360.455Z" fill="#006B99"/>
<path d="M360.453 109.938C360.985 109.925 361.514 110.019 362.009 110.214C362.505 110.408 362.955 110.699 363.337 111.07C363.716 111.442 364.019 111.887 364.226 112.375C364.433 112.866 364.538 113.393 364.538 113.925C364.538 114.456 364.433 114.983 364.226 115.473C364.019 115.964 363.716 116.407 363.337 116.778C362.955 117.15 362.505 117.441 362.009 117.637C361.514 117.83 360.985 117.924 360.453 117.911H315.041C313.982 117.911 312.968 117.491 312.219 116.742C311.471 115.995 311.051 114.979 311.05 113.922C311.051 112.864 311.473 111.85 312.22 111.105C312.97 110.358 313.983 109.938 315.041 109.938H360.453Z" fill="#CCEFF6"/>
<path d="M360.455 126.979C361.512 126.979 362.526 127.399 363.274 128.146C364.023 128.895 364.443 129.909 364.443 130.966C364.443 132.024 364.023 133.037 363.274 133.787C362.526 134.534 361.512 134.953 360.455 134.953H214.282C213.225 134.953 212.209 134.532 211.462 133.783C210.712 133.035 210.291 132.02 210.291 130.962C210.294 129.905 210.716 128.893 211.465 128.146C212.213 127.401 213.226 126.981 214.282 126.979H360.455Z" fill="#006B99"/>
<path d="M360.453 144.035C361.493 144.062 362.484 144.493 363.21 145.237C363.937 145.982 364.345 146.982 364.345 148.022C364.345 149.063 363.937 150.063 363.21 150.806C362.484 151.552 361.493 151.983 360.453 152.01H284.039C282.981 152.008 281.967 151.588 281.218 150.839C280.469 150.092 280.047 149.076 280.047 148.019C280.049 146.961 280.473 145.949 281.22 145.202C281.969 144.457 282.983 144.037 284.039 144.035H360.453Z" fill="#CCEFF6"/>
<path d="M360.455 161.084C360.985 161.07 361.516 161.164 362.011 161.358C362.505 161.553 362.957 161.844 363.337 162.216C363.718 162.588 364.021 163.03 364.228 163.521C364.435 164.011 364.54 164.538 364.54 165.069C364.54 165.602 364.435 166.129 364.228 166.619C364.021 167.108 363.718 167.552 363.337 167.924C362.957 168.296 362.505 168.587 362.011 168.78C361.516 168.976 360.985 169.07 360.455 169.056H338.294C337.236 169.056 336.221 168.635 335.473 167.887C334.726 167.138 334.304 166.125 334.304 165.065C334.306 164.01 334.728 162.998 335.477 162.251C336.224 161.503 337.238 161.084 338.294 161.084H360.455Z" fill="#006B99"/>
<path d="M360.455 178.13C361.512 178.13 362.526 178.552 363.274 179.299C364.023 180.046 364.443 181.062 364.443 182.12C364.443 183.175 364.023 184.191 363.274 184.938C362.526 185.685 361.512 186.107 360.455 186.107H237.535C236.477 186.105 235.462 185.683 234.712 184.936C233.965 184.187 233.543 183.171 233.542 182.114C233.547 181.058 233.969 180.045 234.718 179.299C235.466 178.552 236.479 178.132 237.535 178.13H360.455Z" fill="#CCEFF6"/>
<path d="M360.763 58.8219L356.896 66.766H237.535C236.477 66.766 235.464 66.346 234.714 65.5982C233.967 64.8502 233.547 63.8361 233.547 62.7784C233.547 61.7208 233.967 60.7065 234.714 59.9586C235.464 59.2108 236.477 58.7906 237.535 58.7906H360.455C360.562 58.7906 360.656 58.8146 360.763 58.8219Z" fill="#006B99"/>
<path d="M131.366 24.2592H359.462C358.456 26.362 357.71 28.5794 357.239 30.8623H136.861C134.158 30.8628 131.566 31.9368 129.655 33.8478C127.743 35.7588 126.669 38.3504 126.669 41.0529V73.5843C123.86 71.5037 120.823 69.7511 117.616 68.3607V38.0065C117.616 36.2012 117.972 34.4136 118.663 32.7457C119.354 31.0778 120.367 29.5623 121.643 28.2856C122.92 27.0092 124.436 25.9966 126.104 25.3057C127.772 24.6148 129.56 24.2592 131.366 24.2592Z" fill="#F7CEDC"/>
<path d="M357.85 44.363L357.663 44.4157H163.211V36.6511H356.683C356.699 39.2645 357.092 41.8621 357.85 44.363Z" fill="#006B99"/>
<path d="M316.277 161.084C317.318 161.109 318.309 161.54 319.035 162.285C319.761 163.03 320.169 164.029 320.169 165.069C320.169 166.111 319.761 167.11 319.035 167.855C318.309 168.6 317.318 169.031 316.277 169.056H162.353C161.295 169.056 160.28 168.635 159.532 167.887C158.784 167.138 158.363 166.125 158.363 165.067C158.366 164.009 158.787 162.998 159.535 162.251C160.283 161.505 161.297 161.084 162.353 161.084H316.277Z" fill="#CCEFF6"/>
<path d="M293.023 109.938C294.063 109.963 295.054 110.394 295.78 111.139C296.507 111.885 296.915 112.883 296.915 113.925C296.915 114.966 296.507 115.964 295.78 116.709C295.054 117.455 294.063 117.886 293.023 117.911H162.353C161.295 117.911 160.28 117.489 159.532 116.742C158.784 115.993 158.363 114.979 158.363 113.921C158.365 112.864 158.786 111.85 159.534 111.105C160.282 110.358 161.296 109.938 162.353 109.938H293.023Z" fill="#006B99"/>
<path d="M283.497 242.7L286.77 257.121H282.148H227.444H220.848L228.599 222.932L283.497 242.7Z" fill="#F7CEDC"/>
<path d="M279.016 222.932L283.497 242.7L228.597 222.932H279.016Z" fill="#006B99"/>
<path d="M262.02 144.035C263.061 144.062 264.05 144.493 264.776 145.237C265.504 145.982 265.91 146.982 265.91 148.022C265.91 149.063 265.504 150.063 264.776 150.806C264.05 151.552 263.061 151.983 262.02 152.01H162.353C161.295 152.008 160.28 151.588 159.532 150.839C158.784 150.092 158.363 149.076 158.363 148.019C158.365 146.961 158.786 145.949 159.534 145.202C160.282 144.455 161.296 144.035 162.353 144.035H262.02Z" fill="#006B99"/>
<path d="M246.519 75.8404C247.05 75.8274 247.579 75.9209 248.075 76.1154C248.569 76.3099 249.02 76.6015 249.401 76.9728C249.782 77.3443 250.085 77.7882 250.292 78.2783C250.497 78.7687 250.605 79.2956 250.605 79.8263C250.605 80.3589 250.497 80.8858 250.292 81.3763C250.085 81.8649 249.782 82.3094 249.401 82.6811C249.02 83.0528 248.569 83.3441 248.075 83.5376C247.579 83.733 247.05 83.8269 246.519 83.8135H162.353C161.821 83.8269 161.292 83.733 160.797 83.5376C160.302 83.3441 159.85 83.0528 159.47 82.6811C159.089 82.3094 158.786 81.8649 158.58 81.3763C158.373 80.8858 158.267 80.3589 158.267 79.8263C158.267 79.2956 158.373 78.7687 158.58 78.2783C158.786 77.7882 159.089 77.3443 159.47 76.9728C159.85 76.6015 160.302 76.3099 160.797 76.1154C161.292 75.9209 161.821 75.8274 162.353 75.8404H246.519Z" fill="#006B99"/>
<path d="M215.515 58.7906C216.572 58.7906 217.588 59.2108 218.335 59.9586C219.083 60.7065 219.502 61.7208 219.502 62.7784C219.502 63.8361 219.083 64.8502 218.335 65.5982C217.588 66.346 216.572 66.766 215.515 66.766H162.353C161.295 66.7654 160.28 66.3449 159.532 65.5967C158.784 64.8487 158.363 63.8339 158.363 62.7759C158.365 61.7191 158.787 60.7061 159.535 59.959C160.283 59.2122 161.296 58.792 162.353 58.7906H215.515Z" fill="#CCEFF6"/>
<path d="M215.515 178.13C216.572 178.13 217.588 178.552 218.335 179.299C219.083 180.046 219.502 181.062 219.502 182.12C219.502 183.175 219.083 184.191 218.335 184.938C217.588 185.685 216.572 186.107 215.515 186.107H162.353C161.295 186.105 160.28 185.683 159.532 184.936C158.784 184.187 158.363 183.171 158.363 182.114C158.366 181.058 158.787 180.045 159.535 179.299C160.283 178.552 161.297 178.132 162.353 178.13H215.515Z" fill="#006B99"/>
<path d="M200.013 92.8876C201.071 92.8876 202.087 93.3091 202.834 94.0563C203.582 94.8036 204.003 95.8191 204.003 96.8767C204.003 97.9343 203.582 98.9479 202.834 99.6951C202.087 100.444 201.071 100.864 200.013 100.864H162.353C161.295 100.862 160.28 100.44 159.532 99.6932C158.784 98.9441 158.363 97.9286 158.363 96.8709C158.366 95.8152 158.787 94.8017 159.535 94.0563C160.283 93.3091 161.297 92.8895 162.353 92.8876H200.013Z" fill="#CCEFF6"/>
<path d="M192.262 126.979C193.32 126.979 194.335 127.399 195.083 128.146C195.83 128.895 196.252 129.909 196.252 130.966C196.252 132.024 195.83 133.037 195.083 133.787C194.335 134.534 193.32 134.953 192.262 134.953H162.353C161.295 134.953 160.28 134.532 159.532 133.783C158.784 133.034 158.363 132.02 158.363 130.962C158.366 129.905 158.787 128.893 159.535 128.146C160.283 127.401 161.297 126.979 162.353 126.979H192.262Z" fill="#CCEFF6"/>
<path d="M140.171 94.1139C140.697 94.3093 141.156 94.6523 141.493 95.1006C141.831 95.549 142.034 96.0835 142.077 96.643C142.121 97.2006 142.004 97.762 141.74 98.2563C141.477 98.7506 141.077 99.1606 140.588 99.4365C140.588 99.2737 140.588 99.1032 140.588 98.9326C140.588 98.5379 140.588 98.1432 140.557 97.7466V97.6547C140.506 96.4667 140.377 95.2846 140.171 94.1139Z" fill="#006B99"/>
<path d="M139.117 59.8058C139.705 59.8039 140.28 59.9765 140.77 60.3017C141.26 60.6268 141.642 61.0901 141.868 61.6325C142.094 62.1749 142.155 62.7723 142.041 63.3491C141.928 63.9258 141.645 64.4559 141.23 64.8723C140.815 65.2884 140.286 65.5724 139.71 65.6877C139.133 65.8031 138.535 65.7448 137.992 65.5203C137.449 65.2957 136.984 64.9152 136.658 64.4266C136.331 63.938 136.156 63.3634 136.156 62.7756C136.156 61.9897 136.468 61.2357 137.023 60.6791C137.578 60.1223 138.331 59.8083 139.117 59.8058Z" fill="#006B99"/>
<path d="M139.117 76.8561C139.704 76.8547 140.279 77.0276 140.768 77.3527C141.257 77.6781 141.639 78.141 141.864 78.6824C142.09 79.2246 142.15 79.8224 142.036 80.3972C141.922 80.974 141.64 81.5028 141.225 81.9186C140.811 82.3343 140.282 82.6179 139.706 82.7328C139.13 82.8478 138.533 82.7903 137.99 82.5662C137.447 82.342 136.983 81.9607 136.657 81.4721C136.331 80.9855 136.156 80.4107 136.156 79.8244C136.156 79.0369 136.468 78.2841 137.023 77.7279C137.578 77.1715 138.331 76.858 139.117 76.8561Z" fill="#006B99"/>
<path d="M139.117 110.954C139.905 110.954 140.659 111.266 141.216 111.823C141.773 112.379 142.085 113.134 142.085 113.921C142.085 114.707 141.773 115.462 141.216 116.019C140.659 116.575 139.905 116.887 139.117 116.887C138.485 116.874 137.873 116.659 137.369 116.276C136.865 115.895 136.494 115.362 136.31 114.757L135.903 114.5C136.602 113.414 137.231 112.283 137.786 111.116L137.917 111.176C138.164 110.933 138.914 110.954 139.117 110.954Z" fill="#006B99"/>
<path d="M139.117 145.049C139.705 145.047 140.28 145.219 140.77 145.545C141.26 145.871 141.642 146.333 141.868 146.877C142.094 147.419 142.155 148.015 142.041 148.592C141.928 149.168 141.645 149.699 141.23 150.115C140.815 150.532 140.286 150.816 139.71 150.931C139.133 151.046 138.535 150.988 137.992 150.764C137.449 150.538 136.984 150.159 136.658 149.67C136.331 149.182 136.156 148.607 136.156 148.019C136.156 147.233 136.468 146.478 137.023 145.923C137.578 145.365 138.331 145.051 139.117 145.049Z" fill="#006B99"/>
<path d="M139.117 162.099C139.704 162.097 140.279 162.27 140.768 162.596C141.257 162.921 141.639 163.383 141.864 163.925C142.09 164.467 142.15 165.065 142.036 165.64C141.922 166.217 141.64 166.746 141.225 167.161C140.811 167.577 140.282 167.861 139.706 167.976C139.13 168.091 138.533 168.033 137.99 167.809C137.447 167.585 136.983 167.203 136.657 166.715C136.331 166.228 136.156 165.653 136.156 165.067C136.156 164.28 136.468 163.527 137.023 162.971C137.578 162.413 138.331 162.101 139.117 162.099Z" fill="#006B99"/>
<path d="M139.117 179.146C139.705 179.144 140.28 179.316 140.77 179.642C141.26 179.968 141.642 180.432 141.868 180.974C142.094 181.516 142.155 182.114 142.041 182.69C141.927 183.267 141.645 183.798 141.23 184.214C140.814 184.629 140.285 184.913 139.708 185.028C139.132 185.143 138.534 185.085 137.991 184.859C137.447 184.635 136.983 184.254 136.656 183.765C136.33 183.277 136.156 182.702 136.156 182.114C136.156 181.328 136.468 180.575 137.023 180.018C137.578 179.462 138.331 179.148 139.117 179.146Z" fill="#006B99"/>
<path d="M122.568 126.992L126.88 129.031L126.661 129.495V131.97L117.609 143.529V129.495C119.312 128.763 120.968 127.927 122.568 126.992Z" fill="#006B99"/>
<path d="M107.811 132.681L107.895 133.062C103.89 142.144 98.7924 151.157 92.8207 156.171C90.882 157.798 89.0166 159.446 87.2248 161.114C86.5493 151.211 85.8213 141.19 85.1241 133.062C88.559 133.687 92.0433 134.001 95.5346 133.999C99.6624 134.005 103.779 133.562 107.811 132.681Z" fill="#006B99"/>
<path d="M79.7302 178.079C81.2037 174.628 83.4753 171.576 86.3583 169.173C86.799 168.834 87.2398 168.491 87.6901 168.165C94.8026 163.163 102.553 159.135 110.734 156.19C110.516 156.654 102.192 174.285 94.2056 181.02C92.3541 182.576 90.5 183.972 88.7489 185.331C86.9719 186.682 85.291 188.155 83.7185 189.739C81.9827 191.449 80.6096 193.489 79.6816 195.742C78.7535 197.994 78.2893 200.41 78.3169 202.845V203.24H74.9011V202.845C74.9446 198.668 75.3338 194.503 76.0652 190.391C76.762 186.149 77.9936 182.01 79.7302 178.079Z" fill="#CCEFF6"/>
<path d="M89.5968 202.845V203.24H85.4432C85.2412 198.699 84.6602 194.185 83.7066 189.74C85.279 188.155 86.96 186.682 88.737 185.331C89.2711 194.321 89.5968 201.046 89.5968 202.845Z" fill="#006B99"/>
<path d="M87.6897 168.158C87.2394 168.491 86.7986 168.834 86.3579 169.173C83.4749 171.576 81.2033 174.628 79.7298 178.079C78.8075 176.642 77.6673 175.048 76.3498 173.273C73.2885 169.135 69.3217 164.098 65.2519 158.501C60.3511 151.939 55.9763 144.999 52.1682 137.749C52.1682 137.749 52.1442 137.711 52.1059 137.642C51.5333 136.502 50.9896 135.371 50.4722 134.223C33.5197 96.8403 44.5028 59.5663 44.5028 59.5663C50.3145 64.8665 55.7672 70.5473 60.8252 76.5708C57.6477 79.3817 55.0875 82.819 53.3055 86.6683C51.5237 90.5175 50.559 94.6944 50.4722 98.9345C50.4722 115.512 65.2519 129.407 85.1243 133.064C85.8213 141.192 86.5495 151.213 87.225 161.116C87.3808 163.479 87.5437 165.832 87.6897 168.158Z" fill="#CCEFF6"/>
<path d="M74.3986 176.216C74.3986 176.216 75.6707 183.788 76.0754 190.383C75.3441 194.495 74.9547 198.66 74.9112 202.837V203.232H71.5072V202.837C72.7051 194.824 71.4762 185.804 71.5072 181.541C72.3705 179.713 73.3358 177.937 74.3986 176.216Z" fill="#006B99"/>
<path d="M76.3505 173.273C75.6702 174.231 75.0187 175.218 74.3982 176.216C73.3356 177.937 72.3701 179.713 71.507 181.541C68.3654 188.331 66.7139 195.714 66.6635 203.194V203.232H65.2981C65.2155 194.917 64.3566 186.628 62.7325 178.472C63.5159 174.371 63.9302 169.721 64.4309 164.977C64.6561 162.839 64.8956 160.678 65.1902 158.547L65.2525 158.499C69.3224 164.102 73.2892 169.131 76.3505 173.273Z" fill="#CCEFF6"/>
<path d="M65.2977 203.24H59.2613C58.8661 182.704 44.9775 176.218 31.072 164.502C16.6995 152.404 1.74249 120.468 1.74249 120.468C16.6929 125.852 30.8211 133.29 43.7198 142.569C44.1216 142.91 44.5406 143.23 44.975 143.527C55.0357 151.418 60.1596 165.676 62.7323 178.471C64.3568 186.63 65.2157 194.922 65.2977 203.24Z" fill="#CCEFF6"/>
<path d="M65.2525 158.501L65.1902 158.549C64.8957 160.681 64.6561 162.841 64.4309 164.981C63.0512 155.828 55.7187 150.962 44.9777 143.531C44.5586 143.206 44.1465 142.88 43.7202 142.573C33.9779 134.405 30.9334 114.481 30.9334 114.481C42.0865 121.038 51.2705 136.233 52.1064 137.643C52.1447 137.712 52.1687 137.751 52.1687 137.751C55.977 145.001 60.3518 151.941 65.2525 158.501Z" fill="#006B99"/>
<path d="M117.616 129.495C119.316 128.763 120.97 127.927 122.568 126.992L126.879 129.031L147.959 138.95L134.305 116.811C134.878 116.06 135.421 115.293 135.917 114.5C136.617 113.414 137.246 112.281 137.8 111.115C139.563 107.468 140.514 103.485 140.588 99.4365C140.588 99.2736 140.588 99.1031 140.588 98.9326C140.588 98.5379 140.588 98.1432 140.557 97.7466" stroke="#006B99" stroke-width="1.54342" stroke-linecap="round" stroke-linejoin="round"/>
<path d="M140.567 97.6546C140.513 96.4667 140.381 95.2845 140.172 94.1138C138.466 85.7946 133.633 78.4467 126.669 73.5848C123.86 71.5043 120.823 69.7517 117.617 68.3612C110.646 65.3543 103.127 63.8244 95.5356 63.8682C82.7827 63.5965 70.3936 68.1273 60.826 76.5617C57.6485 79.3721 55.0883 82.8113 53.3063 86.6606C51.5245 90.5098 50.5598 94.6848 50.473 98.9268C50.473 115.502 65.2527 129.397 85.1251 133.055C88.5599 133.679 92.0442 133.993 95.5356 133.992C99.6634 133.997 103.78 133.557 107.812 132.673C111.176 131.938 114.46 130.874 117.617 129.499" stroke="#006B99" stroke-width="1.54342" stroke-linecap="round" stroke-linejoin="round"/>
<path d="M360.771 58.8217L362.973 54.2976C361.995 53.0262 361.116 51.6844 360.338 50.2836C359.291 48.4077 358.454 46.4221 357.843 44.3632C357.086 41.8622 356.693 39.2645 356.679 36.6513C356.679 36.5746 356.679 36.5051 356.679 36.4261C356.678 34.5575 356.865 32.6934 357.239 30.8625C357.709 28.5797 358.454 26.3625 359.458 24.2595C365.813 10.8859 382.343 1.35376 401.736 1.35376C426.616 1.35376 446.793 17.0529 446.793 36.4261C446.793 55.7992 426.616 71.4937 401.736 71.4937C397.793 71.5002 393.858 71.0925 389.999 70.2771C386.904 69.6431 383.874 68.7243 380.948 67.5324C378.8 66.6675 376.719 65.6469 374.72 64.4787L353.64 73.4695L356.911 66.7635L360.784 58.8194" stroke="#006B99" stroke-width="1.54342" stroke-linecap="round" stroke-linejoin="round"/>
<path d="M380.846 176.396L367.367 171.833L373.049 187.912C371.286 190.201 369.845 192.723 368.77 195.405C367.44 198.706 366.756 202.23 366.754 205.788C366.802 211.967 368.816 217.972 372.503 222.932C380.214 233.625 394.933 240.856 411.82 240.856C436.702 240.856 456.877 225.155 456.877 205.788C456.877 186.423 436.702 170.723 411.82 170.723C404.325 170.685 396.903 172.174 390.003 175.101C388.211 175.871 386.469 176.751 384.786 177.736L380.846 176.396Z" stroke="#006B99" stroke-width="1.54342" stroke-linecap="round" stroke-linejoin="round"/>
<path d="M117.616 68.3607V38.0065C117.616 34.3605 119.065 30.8638 121.643 28.2856C124.222 25.7077 127.719 24.2592 131.366 24.2592H359.462" stroke="#006B99" stroke-width="1.54342" stroke-linecap="round" stroke-linejoin="round"/>
<path d="M228.605 222.932H131.366C127.719 222.932 124.222 221.484 121.643 218.905C119.065 216.328 117.616 212.831 117.616 209.185V129.497" stroke="#006B99" stroke-width="1.54342" stroke-linecap="round" stroke-linejoin="round"/>
<path d="M372.497 222.932H355.988H279.016" stroke="#006B99" stroke-width="1.54342" stroke-linecap="round" stroke-linejoin="round"/>
<path d="M389.999 70.2844V88.1532V175.101" stroke="#006B99" stroke-width="1.54342" stroke-linecap="round" stroke-linejoin="round"/>
<path d="M126.669 73.5944V41.0534C126.669 38.3509 127.743 35.7591 129.655 33.8483C131.566 31.9373 134.158 30.8634 136.861 30.8628H357.239" stroke="#006B99" stroke-width="1.54342" stroke-linecap="round" stroke-linejoin="round"/>
<path d="M368.772 195.407H136.861C134.158 195.405 131.566 194.332 129.655 192.422C127.743 190.51 126.669 187.917 126.669 185.216V129.497" stroke="#006B99" stroke-width="1.54342" stroke-linecap="round" stroke-linejoin="round"/>
<path d="M380.946 67.5417V71.6324V176.094" stroke="#006B99" stroke-width="1.54342" stroke-linecap="round" stroke-linejoin="round"/>
<path d="M126.669 50.2832H360.343" stroke="#006B99" stroke-width="1.54342" stroke-linecap="round" stroke-linejoin="round"/>
<path d="M357.664 44.4157H163.213V36.6511H356.616" stroke="#006B99" stroke-width="1.54342" stroke-linecap="round" stroke-linejoin="round"/>
<path d="M261.361 209.168C261.361 210.662 260.918 212.122 260.09 213.364C259.261 214.605 258.082 215.575 256.702 216.148C255.323 216.721 253.805 216.87 252.339 216.581C250.873 216.289 249.528 215.571 248.47 214.515C247.414 213.46 246.693 212.115 246.4 210.651C246.109 209.185 246.256 207.668 246.828 206.288C247.399 204.907 248.366 203.726 249.608 202.897C250.85 202.065 252.308 201.623 253.803 201.621C255.806 201.621 257.728 202.416 259.144 203.83C260.562 205.246 261.359 207.166 261.361 209.168Z" stroke="#006B99" stroke-width="1.54342" stroke-linecap="round" stroke-linejoin="round"/>
<path d="M220.848 257.121L228.599 222.932H279.018L283.497 242.7L286.77 257.121" stroke="#006B99" stroke-width="1.54342" stroke-linecap="round" stroke-linejoin="round"/>
<path d="M282.147 257.12H227.444" stroke="#006B99" stroke-width="1.54342" stroke-linecap="round" stroke-linejoin="round"/>
<path d="M228.597 222.932L283.497 242.7" stroke="#006B99" stroke-width="1.54342" stroke-linecap="round" stroke-linejoin="round"/>
<path d="M199.99 257.12H211.943" stroke="#006B99" stroke-width="1.54342" stroke-linecap="round" stroke-linejoin="round"/>
<path d="M215.492 257.12H220.846H227.444" stroke="#006B99" stroke-width="1.54342" stroke-linecap="round" stroke-linejoin="round"/>
<path d="M29.4745 257.12H41.4277" stroke="#006B99" stroke-width="1.54342" stroke-linecap="round" stroke-linejoin="round"/>
<path d="M88.1161 257.12H118.933" stroke="#006B99" stroke-width="1.54342" stroke-linecap="round" stroke-linejoin="round"/>
<path d="M44.9769 257.12H61.1437" stroke="#006B99" stroke-width="1.54342" stroke-linecap="round" stroke-linejoin="round"/>
<path d="M282.149 257.12H286.77H294.1" stroke="#006B99" stroke-width="1.54342" stroke-linecap="round" stroke-linejoin="round"/>
<path d="M297.649 257.12H309.601" stroke="#006B99" stroke-width="1.54342" stroke-linecap="round" stroke-linejoin="round"/>
<path d="M148.246 45.3164L156.175 40.7443L148.246 36.1627" stroke="#006B99" stroke-width="1.54342" stroke-linecap="round" stroke-linejoin="round"/>
<path d="M143.123 36.1627L135.186 40.7443L143.123 45.3164" stroke="#006B99" stroke-width="1.54342" stroke-linecap="round" stroke-linejoin="round"/>
<path d="M380.946 71.6321L389.999 88.1532" stroke="#006B99" stroke-width="1.54342" stroke-linecap="round" stroke-linejoin="round"/>
<path d="M363.701 195.405L355.99 222.932" stroke="#006B99" stroke-width="1.54342" stroke-linecap="round" stroke-linejoin="round"/>
<path d="M126.669 131.97L117.616 143.529" stroke="#006B99" stroke-width="1.54342" stroke-linecap="round" stroke-linejoin="round"/>
<path d="M88.1161 257.119H61.1437C56.8561 257.119 52.744 255.418 49.7122 252.387C46.6804 249.354 44.9769 245.244 44.9769 240.956V203.24H104.283V240.956C104.282 245.244 102.579 249.354 99.547 252.385C96.5152 255.416 92.4035 257.119 88.1161 257.119Z" stroke="#006B99" stroke-width="1.54342" stroke-linecap="round" stroke-linejoin="round"/>
<path d="M65.2977 203.24C65.2157 194.922 64.3568 186.63 62.7323 178.471C60.1596 165.676 55.0357 151.408 44.9775 143.527C44.5582 143.202 44.1462 142.876 43.7198 142.569C30.8211 133.29 16.6929 125.852 1.74249 120.468C1.74249 120.468 16.702 152.404 31.072 164.502C44.9775 176.218 58.8588 182.704 59.2613 203.24" stroke="#006B99" stroke-width="1.54342" stroke-linecap="round" stroke-linejoin="round"/>
<path d="M71.5064 181.549C68.365 188.337 66.7133 195.721 66.6631 203.201" stroke="#006B99" stroke-width="1.54342" stroke-linecap="round" stroke-linejoin="round"/>
<path d="M76.3502 173.273C75.6699 174.231 75.0183 175.218 74.398 176.216C73.3352 177.937 72.37 179.713 71.5067 181.541" stroke="#006B99" stroke-width="1.54342" stroke-linecap="round" stroke-linejoin="round"/>
<path d="M107.895 133.062C103.89 142.144 98.7928 151.157 92.8209 156.171C90.8823 157.798 89.017 159.446 87.2252 161.114" stroke="#006B99" stroke-width="1.54342" stroke-linecap="round" stroke-linejoin="round"/>
<path d="M62.7325 178.471C63.5159 174.371 63.9302 169.723 64.4309 164.977C64.6561 162.839 64.8956 160.68 65.1902 158.547" stroke="#006B99" stroke-width="1.54342" stroke-linecap="round" stroke-linejoin="round"/>
<path d="M110.751 156.171C110.526 156.65 102.201 174.274 94.2223 181.008C92.3705 182.564 90.5165 183.961 88.7655 185.319C86.9885 186.67 85.3077 188.143 83.7351 189.728C81.9993 191.437 80.6263 193.478 79.698 195.729C78.7699 197.982 78.3058 200.398 78.3334 202.833" stroke="#006B99" stroke-width="1.54342" stroke-linecap="round" stroke-linejoin="round"/>
<path d="M87.6903 168.158C94.8028 163.157 102.553 159.129 110.734 156.183" stroke="#006B99" stroke-width="1.54342" stroke-linecap="round" stroke-linejoin="round"/>
<path d="M74.9011 202.845C74.9446 198.668 75.3338 194.503 76.0652 190.391C76.7626 186.151 77.9942 182.016 79.7302 178.086C81.2037 174.634 83.4753 171.583 86.3583 169.181C86.799 168.842 87.2398 168.499 87.6901 168.173" stroke="#006B99" stroke-width="1.54342" stroke-linecap="round" stroke-linejoin="round"/>
<path d="M83.7066 189.74C84.6602 194.185 85.2412 198.699 85.4432 203.24" stroke="#006B99" stroke-width="1.54342" stroke-linecap="round" stroke-linejoin="round"/>
<path d="M52.1683 137.756C55.9765 145.007 60.3515 151.946 65.2521 158.509C69.3243 164.105 73.2888 169.142 76.3502 173.281C77.6677 175.055 78.8079 176.657 79.73 178.084" stroke="#006B99" stroke-width="1.54342" stroke-linecap="round" stroke-linejoin="round"/>
<path d="M60.8252 76.5685C55.7672 70.5448 50.3145 64.8642 44.5028 59.564C44.5028 59.564 33.5197 96.8365 50.4722 134.221C50.9896 135.367 51.5333 136.498 52.1059 137.638" stroke="#006B99" stroke-width="1.54342" stroke-linecap="round" stroke-linejoin="round"/>
<path d="M87.6897 168.173C87.5435 165.839 87.3806 163.485 87.225 161.122C86.5495 151.218 85.8213 141.198 85.1241 133.068" stroke="#006B99" stroke-width="1.54342" stroke-linecap="round" stroke-linejoin="round"/>
<path d="M89.5967 202.845C89.5967 201.046 89.2709 194.321 88.7439 185.331" stroke="#006B99" stroke-width="1.54342" stroke-linecap="round" stroke-linejoin="round"/>
<path d="M52.1687 137.757C52.1687 137.757 52.1447 137.718 52.1064 137.647C51.2705 136.237 42.0865 121.041 30.9334 114.487C30.9334 114.487 33.9779 134.409 43.7202 142.577C44.1224 142.918 44.5421 143.238 44.9777 143.535C55.7187 150.96 63.0512 155.834 64.4309 164.985" stroke="#006B99" stroke-width="1.54342" stroke-linecap="round" stroke-linejoin="round"/>
<path d="M71.5072 181.541C71.4762 185.804 72.7049 194.825 71.5072 202.837" stroke="#006B99" stroke-width="1.54342" stroke-linecap="round" stroke-linejoin="round"/>
<path d="M74.3976 176.216C74.3976 176.216 75.6695 183.788 76.0744 190.383" stroke="#006B99" stroke-width="1.54342" stroke-linecap="round" stroke-linejoin="round"/>
<path d="M152.208 55.8231V186.881" stroke="#006B99" stroke-width="1.54342" stroke-linecap="round" stroke-linejoin="round"/>
<path d="M215.515 66.766H162.353C161.295 66.7654 160.28 66.3449 159.532 65.5967C158.784 64.8487 158.363 63.8339 158.363 62.7759C158.365 61.7191 158.787 60.7061 159.535 59.959C160.283 59.2122 161.296 58.792 162.353 58.7906H215.515C216.572 58.7906 217.588 59.2108 218.335 59.9586C219.083 60.7065 219.502 61.7208 219.502 62.7784C219.502 63.836 219.083 64.8502 218.335 65.5982C217.588 66.346 216.572 66.766 215.515 66.766Z" stroke="#006B99" stroke-width="1.54342" stroke-linecap="round" stroke-linejoin="round"/>
<path d="M360.771 58.8219C360.656 58.8219 360.562 58.7906 360.455 58.7906H237.535C236.477 58.7906 235.464 59.2108 234.714 59.9586C233.967 60.7065 233.547 61.7208 233.547 62.7784C233.547 63.836 233.967 64.8502 234.714 65.5982C235.464 66.346 236.477 66.766 237.535 66.766H356.896L360.771 58.8219Z" stroke="#006B99" stroke-width="1.54342" stroke-linecap="round" stroke-linejoin="round"/>
<path d="M142.085 62.7756C142.085 63.3617 141.91 63.9344 141.584 64.4214C141.257 64.9083 140.794 65.2875 140.252 65.5113C139.71 65.735 139.114 65.7933 138.539 65.6785C137.965 65.5637 137.437 65.2811 137.022 64.8665C136.608 64.4519 136.326 63.9238 136.211 63.349C136.097 62.774 136.156 62.1784 136.38 61.6367C136.604 61.0953 136.984 60.6322 137.471 60.3064C137.958 59.9805 138.531 59.8064 139.118 59.8058C139.508 59.8052 139.894 59.8817 140.255 60.0307C140.615 60.1798 140.943 60.3984 141.218 60.6743C141.494 60.9504 141.713 61.278 141.862 61.6386C142.01 61.9992 142.086 62.3855 142.085 62.7756Z" stroke="#006B99" stroke-width="1.54342" stroke-linecap="round" stroke-linejoin="round"/>
<path d="M246.519 83.8135H162.353C161.821 83.8269 161.292 83.733 160.797 83.5376C160.302 83.3441 159.85 83.0528 159.47 82.6811C159.089 82.3094 158.786 81.8649 158.58 81.3763C158.373 80.8858 158.267 80.3589 158.267 79.8263C158.267 79.2956 158.373 78.7687 158.58 78.2783C158.786 77.7882 159.089 77.3443 159.47 76.9728C159.85 76.6015 160.302 76.3099 160.797 76.1154C161.292 75.9209 161.821 75.8274 162.353 75.8404H246.519C247.05 75.8274 247.579 75.9209 248.075 76.1154C248.569 76.3099 249.02 76.6015 249.401 76.9728C249.782 77.3443 250.085 77.7882 250.292 78.2783C250.497 78.7687 250.605 79.2956 250.605 79.8263C250.605 80.3589 250.497 80.8858 250.292 81.3763C250.085 81.8649 249.782 82.3094 249.401 82.6811C249.02 83.0528 248.569 83.3441 248.075 83.5376C247.579 83.733 247.05 83.8269 246.519 83.8135Z" stroke="#006B99" stroke-width="1.54342" stroke-linecap="round" stroke-linejoin="round"/>
<path d="M360.453 83.8135H268.536C267.748 83.8154 266.976 83.5816 266.319 83.1448C265.663 82.706 265.15 82.0833 264.849 81.3553C264.546 80.6253 264.467 79.8244 264.623 79.0503C264.778 78.2764 265.157 77.5662 265.717 77.0092C266.085 76.6369 266.525 76.3418 267.008 76.1412C267.493 75.9404 268.013 75.8383 268.536 75.8404H360.453C360.985 75.8274 361.514 75.9209 362.009 76.1154C362.505 76.3099 362.955 76.6015 363.337 76.9728C363.718 77.3443 364.019 77.7882 364.226 78.2783C364.433 78.7687 364.54 79.2956 364.54 79.8263C364.54 80.3589 364.433 80.8858 364.226 81.3763C364.019 81.8649 363.718 82.3094 363.337 82.6811C362.955 83.0528 362.505 83.3441 362.009 83.5376C361.514 83.733 360.985 83.8269 360.453 83.8135Z" stroke="#006B99" stroke-width="1.54342" stroke-linecap="round" stroke-linejoin="round"/>
<path d="M142.085 79.8244C142.085 80.4106 141.911 80.9835 141.585 81.4702C141.259 81.9569 140.796 82.3362 140.254 82.5604C139.712 82.7846 139.116 82.844 138.541 82.729C137.966 82.614 137.438 82.3324 137.023 81.9185C136.609 81.5028 136.326 80.9759 136.211 80.4011C136.097 79.8244 136.156 79.2285 136.38 78.6882C136.604 78.1459 136.984 77.6828 137.471 77.3569C137.958 77.0308 138.531 76.8567 139.118 76.8561C139.508 76.8555 139.894 76.9318 140.254 77.0808C140.614 77.2297 140.942 77.4481 141.218 77.7238C141.493 77.9996 141.712 78.327 141.861 78.6882C142.01 79.0484 142.086 79.4335 142.085 79.8244Z" stroke="#006B99" stroke-width="1.54342" stroke-linecap="round" stroke-linejoin="round"/>
<path d="M200.013 100.874H162.353C161.295 100.872 160.28 100.45 159.532 99.7029C158.784 98.9537 158.363 97.9382 158.363 96.8806C158.366 95.823 158.787 94.8113 159.535 94.066C160.283 93.3187 161.297 92.8991 162.353 92.8972H200.013C201.071 92.8972 202.087 93.3168 202.834 94.066C203.582 94.8132 204.003 95.8268 204.003 96.8844C204.003 97.942 203.582 98.9575 202.834 99.7048C202.087 100.452 201.071 100.874 200.013 100.874Z" stroke="#006B99" stroke-width="1.54342" stroke-linecap="round" stroke-linejoin="round"/>
<path d="M360.455 100.874H222.032C220.974 100.872 219.96 100.45 219.211 99.7009C218.464 98.9537 218.042 97.9382 218.042 96.8806C218.046 95.8249 218.468 94.8132 219.215 94.066C219.964 93.3207 220.976 92.8991 222.032 92.8972H360.455C361.512 92.8972 362.526 93.3168 363.274 94.066C364.023 94.8132 364.443 95.8268 364.443 96.8844C364.443 97.942 364.023 98.9575 363.274 99.7048C362.526 100.452 361.512 100.874 360.455 100.874Z" stroke="#006B99" stroke-width="1.54342" stroke-linecap="round" stroke-linejoin="round"/>
<path d="M140.597 98.9326C140.597 99.1032 140.597 99.2737 140.581 99.4365C141.069 99.1606 141.469 98.7506 141.733 98.2563C141.997 97.762 142.113 97.2006 142.07 96.643C142.026 96.0835 141.823 95.549 141.486 95.1006C141.148 94.6523 140.689 94.3093 140.164 94.1139H140.147C140.359 95.2884 140.497 96.4725 140.559 97.6642V97.76C140.588 98.1432 140.597 98.5379 140.597 98.9326Z" stroke="#006B99" stroke-width="1.54342" stroke-linecap="round" stroke-linejoin="round"/>
<path d="M293.023 117.911H162.353C161.295 117.911 160.28 117.489 159.532 116.742C158.784 115.993 158.363 114.979 158.363 113.921C158.365 112.864 158.786 111.85 159.534 111.105C160.282 110.358 161.296 109.938 162.353 109.938H293.023C294.063 109.963 295.054 110.394 295.78 111.139C296.507 111.885 296.915 112.883 296.915 113.925C296.915 114.966 296.507 115.964 295.78 116.709C295.054 117.455 294.063 117.886 293.023 117.911Z" stroke="#006B99" stroke-width="1.54342" stroke-linecap="round" stroke-linejoin="round"/>
<path d="M360.453 117.911H315.041C313.982 117.911 312.968 117.491 312.219 116.742C311.471 115.995 311.051 114.979 311.05 113.922C311.051 112.864 311.473 111.85 312.22 111.105C312.97 110.358 313.983 109.938 315.041 109.938H360.453C360.985 109.925 361.514 110.019 362.009 110.214C362.505 110.408 362.955 110.699 363.337 111.07C363.716 111.442 364.019 111.887 364.226 112.375C364.433 112.866 364.538 113.393 364.538 113.925C364.538 114.456 364.433 114.983 364.226 115.473C364.019 115.964 363.716 116.407 363.337 116.778C362.955 117.15 362.505 117.441 362.009 117.637C361.514 117.83 360.985 117.924 360.453 117.911Z" stroke="#006B99" stroke-width="1.54342" stroke-linecap="round" stroke-linejoin="round"/>
<path d="M137.922 111.172C138.162 110.932 138.914 110.95 139.12 110.95C139.907 110.95 140.662 111.262 141.219 111.818C141.775 112.375 142.088 113.13 142.088 113.916C142.088 114.703 141.775 115.458 141.219 116.016C140.662 116.571 139.907 116.884 139.12 116.884C138.487 116.868 137.875 116.656 137.371 116.272C136.867 115.889 136.497 115.358 136.313 114.753" stroke="#006B99" stroke-width="1.54342" stroke-linecap="round" stroke-linejoin="round"/>
<path d="M192.262 134.961H162.353C161.295 134.959 160.28 134.538 159.532 133.79C158.784 133.041 158.363 132.026 158.363 130.968C158.366 129.912 158.787 128.899 159.535 128.154C160.283 127.406 161.297 126.987 162.353 126.985H192.262C193.32 126.985 194.335 127.406 195.083 128.154C195.83 128.901 196.252 129.916 196.252 130.974C196.252 132.031 195.83 133.045 195.083 133.792C194.335 134.541 193.32 134.961 192.262 134.961Z" stroke="#006B99" stroke-width="1.54342" stroke-linecap="round" stroke-linejoin="round"/>
<path d="M360.455 134.961H214.282C213.225 134.959 212.209 134.538 211.462 133.79C210.712 133.041 210.291 132.028 210.291 130.968C210.294 129.912 210.716 128.901 211.465 128.154C212.213 127.408 213.226 126.987 214.282 126.985H360.455C361.512 126.985 362.526 127.406 363.274 128.154C364.023 128.901 364.443 129.916 364.443 130.974C364.443 132.031 364.023 133.045 363.274 133.792C362.526 134.541 361.512 134.961 360.455 134.961Z" stroke="#006B99" stroke-width="1.54342" stroke-linecap="round" stroke-linejoin="round"/>
<path d="M262.02 152.01H162.353C161.295 152.008 160.28 151.588 159.532 150.839C158.784 150.092 158.363 149.076 158.363 148.019C158.365 146.961 158.786 145.949 159.534 145.202C160.282 144.455 161.296 144.035 162.353 144.035H262.02C263.061 144.062 264.05 144.493 264.776 145.237C265.504 145.982 265.91 146.982 265.91 148.022C265.91 149.063 265.504 150.063 264.776 150.806C264.05 151.552 263.061 151.983 262.02 152.01Z" stroke="#006B99" stroke-width="1.54342" stroke-linecap="round" stroke-linejoin="round"/>
<path d="M360.453 152.01H284.039C282.981 152.008 281.967 151.588 281.218 150.839C280.469 150.092 280.047 149.076 280.047 148.019C280.049 146.961 280.473 145.949 281.22 145.202C281.969 144.457 282.983 144.037 284.039 144.035H360.453C361.493 144.062 362.484 144.493 363.21 145.237C363.937 145.982 364.345 146.982 364.345 148.022C364.345 149.063 363.937 150.063 363.21 150.806C362.484 151.552 361.493 151.983 360.453 152.01Z" stroke="#006B99" stroke-width="1.54342" stroke-linecap="round" stroke-linejoin="round"/>
<path d="M142.085 148.019C142.085 148.605 141.91 149.178 141.584 149.664C141.257 150.151 140.794 150.53 140.252 150.755C139.71 150.979 139.114 151.036 138.539 150.921C137.965 150.806 137.437 150.525 137.022 150.109C136.608 149.695 136.326 149.166 136.211 148.592C136.097 148.017 136.156 147.421 136.38 146.881C136.604 146.338 136.984 145.875 137.471 145.549C137.958 145.223 138.531 145.049 139.118 145.049C139.508 145.049 139.894 145.125 140.255 145.273C140.615 145.422 140.943 145.641 141.218 145.917C141.494 146.193 141.713 146.522 141.862 146.882C142.01 147.243 142.086 147.63 142.085 148.019Z" stroke="#006B99" stroke-width="1.54342" stroke-linecap="round" stroke-linejoin="round"/>
<path d="M316.277 169.056H162.353C161.295 169.056 160.28 168.635 159.532 167.887C158.784 167.138 158.363 166.125 158.363 165.067C158.366 164.009 158.787 162.998 159.535 162.251C160.283 161.505 161.297 161.084 162.353 161.084H316.277C317.318 161.109 318.309 161.54 319.035 162.285C319.761 163.03 320.169 164.029 320.169 165.069C320.169 166.111 319.761 167.11 319.035 167.855C318.309 168.6 317.318 169.031 316.277 169.056Z" stroke="#006B99" stroke-width="1.54342" stroke-linecap="round" stroke-linejoin="round"/>
<path d="M360.455 169.056H338.294C337.236 169.056 336.221 168.635 335.473 167.887C334.726 167.138 334.304 166.125 334.304 165.065C334.306 164.01 334.728 162.998 335.477 162.251C336.224 161.503 337.238 161.084 338.294 161.084H360.455C360.985 161.07 361.516 161.164 362.011 161.358C362.505 161.553 362.957 161.844 363.337 162.216C363.718 162.588 364.021 163.03 364.228 163.521C364.435 164.011 364.54 164.538 364.54 165.069C364.54 165.602 364.435 166.129 364.228 166.619C364.021 167.108 363.718 167.552 363.337 167.924C362.957 168.296 362.505 168.587 362.011 168.78C361.516 168.976 360.985 169.07 360.455 169.056Z" stroke="#006B99" stroke-width="1.54342" stroke-linecap="round" stroke-linejoin="round"/>
<path d="M142.085 165.059C142.085 165.646 141.911 166.219 141.585 166.705C141.259 167.192 140.796 167.573 140.254 167.797C139.712 168.022 139.116 168.079 138.541 167.964C137.966 167.851 137.438 167.567 137.023 167.154C136.609 166.74 136.326 166.211 136.211 165.636C136.097 165.061 136.156 164.465 136.38 163.923C136.604 163.381 136.984 162.919 137.471 162.592C137.958 162.266 138.531 162.092 139.118 162.092C139.508 162.092 139.894 162.168 140.254 162.316C140.614 162.465 140.942 162.684 141.218 162.96C141.493 163.235 141.712 163.563 141.861 163.923C142.01 164.283 142.086 164.669 142.085 165.059Z" stroke="#006B99" stroke-width="1.54342" stroke-linecap="round" stroke-linejoin="round"/>
<path d="M215.515 186.107H162.353C161.295 186.105 160.28 185.683 159.532 184.936C158.784 184.187 158.363 183.171 158.363 182.114C158.366 181.058 158.787 180.045 159.535 179.299C160.283 178.552 161.297 178.132 162.353 178.13H215.515C216.572 178.13 217.588 178.552 218.335 179.299C219.083 180.046 219.502 181.062 219.502 182.12C219.502 183.175 219.083 184.191 218.335 184.938C217.588 185.685 216.572 186.107 215.515 186.107Z" stroke="#006B99" stroke-width="1.54342" stroke-linecap="round" stroke-linejoin="round"/>
<path d="M360.455 186.107H237.535C236.477 186.105 235.462 185.683 234.712 184.936C233.965 184.187 233.543 183.171 233.542 182.114C233.547 181.058 233.969 180.045 234.718 179.299C235.466 178.552 236.479 178.132 237.535 178.13H360.455C361.512 178.13 362.526 178.552 363.274 179.299C364.023 180.046 364.443 181.062 364.443 182.12C364.443 183.175 364.023 184.191 363.274 184.938C362.526 185.685 361.512 186.107 360.455 186.107Z" stroke="#006B99" stroke-width="1.54342" stroke-linecap="round" stroke-linejoin="round"/>
<path d="M142.086 182.114C142.085 182.7 141.911 183.273 141.585 183.76C141.259 184.248 140.796 184.628 140.254 184.852C139.712 185.076 139.116 185.133 138.541 185.02C137.966 184.905 137.438 184.622 137.023 184.208C136.609 183.794 136.326 183.265 136.211 182.691C136.097 182.116 136.156 181.52 136.38 180.978C136.604 180.435 136.984 179.974 137.471 179.648C137.958 179.32 138.531 179.148 139.118 179.146C139.507 179.146 139.894 179.223 140.254 179.372C140.614 179.522 140.941 179.74 141.217 180.016C141.493 180.29 141.711 180.617 141.86 180.978C142.009 181.338 142.086 181.725 142.086 182.114Z" stroke="#006B99" stroke-width="1.54342" stroke-linecap="round" stroke-linejoin="round"/>
<path d="M85.8525 98.7467C85.759 98.7467 85.668 98.7467 85.5746 98.7467C85.4811 98.7467 85.3805 98.7467 85.2872 98.7467C82.4094 98.5992 79.703 97.3346 77.7451 95.2213C75.7871 93.108 74.7326 90.3125 74.8064 87.4328C74.8801 84.553 76.0763 81.815 78.1398 79.8052C80.2033 77.7939 82.9711 76.6691 85.8525 76.6694" stroke="#006B99" stroke-width="2.31632" stroke-linecap="round" stroke-linejoin="round"/>
<path d="M70.1654 98.7314H85.8531C85.7596 98.7314 85.6686 98.7314 85.5752 98.7314C82.6781 98.8157 79.9303 100.036 77.9241 102.127C75.918 104.219 74.8142 107.014 74.8507 109.911C74.8871 112.808 76.0608 115.577 78.119 117.617C80.1771 119.656 82.9548 120.808 85.8531 120.819" stroke="#006B99" stroke-width="2.31632" stroke-linecap="round" stroke-linejoin="round"/>
<path d="M105.687 98.7467C105.78 98.7467 105.881 98.7467 105.974 98.7467C106.068 98.7467 106.161 98.7467 106.252 98.7467C109.13 98.5992 111.836 97.3346 113.794 95.2213C115.752 93.108 116.807 90.3125 116.733 87.4328C116.659 84.553 115.463 81.815 113.399 79.8052C111.336 77.7939 108.568 76.6691 105.687 76.6694" stroke="#006B99" stroke-width="2.31632" stroke-linecap="round" stroke-linejoin="round"/>
<path d="M121.374 98.7314H105.687C105.78 98.7314 105.881 98.7314 105.974 98.7314C108.872 98.8157 111.62 100.036 113.626 102.129C115.632 104.221 116.735 107.018 116.698 109.917C116.66 112.814 115.484 115.583 113.425 117.621C111.365 119.66 108.586 120.81 105.687 120.819" stroke="#006B99" stroke-width="2.31632" stroke-linecap="round" stroke-linejoin="round"/>
<path d="M411.251 49.3447L432.31 37.1947L411.251 25.0354" stroke="#006B99" stroke-width="2.31632" stroke-linecap="round" stroke-linejoin="round"/>
<path d="M389.635 25.0354L368.576 37.1947L389.635 49.3447" stroke="#006B99" stroke-width="2.31632" stroke-linecap="round" stroke-linejoin="round"/>
<path d="M406.439 19.5413L393.851 54.6688" stroke="#006B99" stroke-width="1.54342" stroke-linecap="round" stroke-linejoin="round"/>
<path d="M387.797 220.25L391.208 209.896L399.301 185.331L407.399 209.896L410.81 220.25" stroke="#006B99" stroke-width="2.31632" stroke-linecap="round" stroke-linejoin="round"/>
<path d="M391.208 209.896H407.399" stroke="#006B99" stroke-width="2.31632" stroke-linecap="round" stroke-linejoin="round"/>
<path d="M428.333 214.222C426.11 218.987 421.946 221.754 419.048 220.405C416.149 219.056 415.609 214.09 417.832 209.317C420.055 204.543 424.209 201.783 427.116 203.132C428.009 203.68 428.728 204.474 429.186 205.416C429.644 206.359 429.824 207.413 429.705 208.455C429.669 210.453 429.201 212.421 428.333 214.222Z" stroke="#006B99" stroke-width="1.54342" stroke-linecap="round" stroke-linejoin="round"/>
<path d="M429.699 208.384C429.699 208.409 429.699 208.432 429.699 208.455C430.125 212.647 427.561 223.691 434.251 219.196" stroke="#006B99" stroke-width="1.54342" stroke-linecap="round" stroke-linejoin="round"/>
</svg>
